<?xml version="1.0" encoding="utf-8"?>
<!-- Generator: Adobe Illustrator 17.0.0, SVG Export Plug-In . SVG Version: 6.00 Build 0)  -->
<!DOCTYPE svg PUBLIC "-//W3C//DTD SVG 1.1//EN" "http://www.w3.org/Graphics/SVG/1.1/DTD/svg11.dtd">
<svg version="1.1" id="Capa_1" xmlns="http://www.w3.org/2000/svg" xmlns:xlink="http://www.w3.org/1999/xlink" x="0px" y="0px"
	 width="623.622px" height="623.622px" viewBox="-14.171 109.134 623.622 623.622"
	 enable-background="new -14.171 109.134 623.622 623.622" xml:space="preserve">
<g id="Ebene_1">
	<g>
		<path fill="#283159" d="M591.625,607.362c-8.877,46.996-69.972,90.336-127.411,91.903c-81.198,2.611-86.159-80.154-202.082-103.13
			c-110.701-22.192-150.125-21.67-150.125-21.67c-8.355,0-26.631,0.522-46.996-8.094c-4.961-2.089-40.208-17.754-55.09-54.828
			c-15.926-39.424,1.305-77.804,6.005-87.725c30.808-63.183,88.77-48.562,192.161-129.761
			c42.296-33.158,49.607-49.084,84.592-60.833c12.271-4.177,72.321-22.715,127.15,7.572c43.079,23.759,60.05,65.011,84.854,124.8
			c16.71,40.208,10.705,41.774,28.459,91.642C568.649,556.972,598.413,570.548,591.625,607.362z"/>
	</g>
	<g>
		<g>
			<path fill="#80D2B6" d="M91.12,317.293c7.833-38.38,41.252-67.361,81.459-66.055c40.991,1.567,73.627,33.68,77.282,74.149
				c0.522,4.438,7.572,4.7,7.31,0c-3.916-42.818-36.813-77.804-80.415-81.198c-44.385-3.394-83.548,27.936-92.425,71.016
				C83.287,319.904,90.075,321.732,91.12,317.293L91.12,317.293z"/>
			<path fill="#80D2B6" d="M183.806,230.351c-34.986-3.394-74.932,8.616-95.558,38.641c-10.182,14.882-16.187,32.897-18.537,50.651
				c-1.044,7.572-1.305,15.143-0.522,22.454c1.305,10.705,4.961,20.887-4.177,29.764c-3.394,3.133,1.828,8.355,4.961,4.961
				c10.182-9.921,8.355-21.148,6.527-33.68c-2.611-17.754,1.828-37.074,8.616-53.523c16.449-39.163,57.961-56.656,98.691-52.479
				C188.505,237.923,188.505,230.873,183.806,230.351L183.806,230.351z"/>
			<path fill="#80D2B6" d="M67.883,277.086c-13.577,25.064-16.71,53.262-9.66,80.937c1.044,4.439,8.094,2.611,7.049-1.828
				c-6.788-25.848-3.655-51.956,8.877-75.193C76.499,276.564,70.233,272.908,67.883,277.086L67.883,277.086z"/>
			<path fill="#80D2B6" d="M221.141,227.479c-50.39-25.064-112.529-9.399-144.904,36.552c-2.611,3.655,3.655,7.31,6.266,3.655
				c30.025-42.557,88.509-57.178,135.243-33.941C221.663,235.834,225.319,229.568,221.141,227.479L221.141,227.479z"/>
			<path fill="#80D2B6" d="M287.98,336.875c1.305-41.252-18.798-79.371-53.262-101.824c-3.916-2.611-7.572,3.655-3.655,6.266
				c32.636,21.148,50.912,56.917,49.868,95.558C280.669,341.574,287.98,341.313,287.98,336.875L287.98,336.875z"/>
			<path fill="#80D2B6" d="M272.053,383.609c1.567-33.158,2.872-67.622-12.01-98.43c-11.749-24.803-33.68-42.296-59.789-49.868
				c-4.438-1.305-6.266,5.744-1.828,7.049c26.631,7.833,47.779,26.37,58.223,52.479c11.227,28.197,9.921,59.267,8.355,89.031
				C264.482,388.309,271.792,388.309,272.053,383.609L272.053,383.609z"/>
			<path fill="#80D2B6" d="M255.605,347.057c4.7,0,4.7-7.31,0-7.31C250.905,339.747,250.905,347.057,255.605,347.057
				L255.605,347.057z"/>
			<path fill="#80D2B6" d="M252.994,411.807c6.266-22.454,8.094-45.168,5.744-68.405c-0.522-4.438-7.572-4.7-7.31,0
				c2.611,22.715,0.783,44.646-5.483,66.577C244.9,414.418,251.689,416.245,252.994,411.807L252.994,411.807z"/>
			<path fill="#80D2B6" d="M216.442,273.169c-22.192-16.187-50.39-19.582-75.715-9.138c-4.177,1.828-2.35,8.616,1.828,7.049
				c23.759-9.66,49.607-6.788,70.233,8.355C216.442,282.307,220.097,276.041,216.442,273.169L216.442,273.169z"/>
			<path fill="#80D2B6" d="M122.711,274.736c-14.36,12.793-23.759,30.025-25.326,49.346c-1.044,12.793,2.611,25.326,1.305,38.119
				c-1.305,13.838-8.094,25.587-18.276,34.725c-3.394,3.133,1.567,8.094,4.961,4.961c14.36-13.315,21.67-30.808,20.626-50.39
				c-0.783-13.054-2.872-25.587,0.522-38.38c3.655-13.315,11.227-24.281,21.409-33.419
				C131.327,276.825,126.366,271.864,122.711,274.736L122.711,274.736z"/>
			<path fill="#80D2B6" d="M76.76,391.703c6.788-6.527,11.488-14.36,13.577-23.498c2.611-11.488-1.828-22.192-0.783-33.941
				c0.522-4.7-6.788-4.7-7.31,0c-0.783,9.138,2.611,17.493,1.828,26.631c-0.783,10.182-5.483,18.798-12.532,25.587
				C68.405,389.876,73.627,395.097,76.76,391.703L76.76,391.703z"/>
			<path fill="#80D2B6" d="M233.151,428.778c14.621-45.951,22.715-97.386-4.7-140.204c-2.35-3.916-8.616-0.261-6.266,3.655
				c26.109,41.513,18.015,90.597,3.916,134.721C224.797,431.389,231.846,433.216,233.151,428.778L233.151,428.778z"/>
			<path fill="#80D2B6" d="M212.003,439.482c6.266-10.966,10.966-22.715,14.099-34.986c1.044-4.438-5.744-6.266-7.049-1.828
				c-2.872,11.749-7.31,22.715-13.315,33.419C203.387,440.004,209.653,443.66,212.003,439.482L212.003,439.482z"/>
			<path fill="#80D2B6" d="M93.992,413.112c9.66-7.833,16.71-18.276,20.365-30.025c1.305-4.438-5.483-6.266-7.049-1.828
				c-3.394,10.705-9.66,19.843-18.537,26.892C85.115,411.024,90.336,415.984,93.992,413.112L93.992,413.112z"/>
			<path fill="#80D2B6" d="M149.864,401.102c4.7,0,4.7-7.31,0-7.31C145.165,393.792,145.165,401.102,149.864,401.102
				L149.864,401.102z"/>
			<path fill="#80D2B6" d="M129.238,437.655c10.705-11.227,18.798-24.542,24.02-39.163c1.567-4.438-5.483-6.266-7.049-1.828
				c-4.7,13.577-12.271,25.587-22.192,36.03C121.145,435.827,126.105,441.049,129.238,437.655L129.238,437.655z"/>
			<path fill="#80D2B6" d="M176.756,445.748c13.838-21.931,22.192-46.213,25.064-71.799c0.522-4.7-6.527-4.438-7.31,0
				c-2.872,24.542-10.966,47.257-24.02,68.405C168.141,446.009,174.407,449.665,176.756,445.748L176.756,445.748z"/>
			<path fill="#80D2B6" d="M172.057,286.746c-23.759-0.783-44.907,15.665-47.257,39.946c-1.567,16.971,4.177,32.636,0,49.607
				c-3.916,16.449-13.054,30.286-25.848,41.252c-3.394,3.133,1.567,8.094,4.961,4.961c16.71-14.621,27.675-34.725,29.764-56.917
				c1.305-13.838-4.177-28.197-1.305-41.774c3.916-19.059,20.626-30.547,39.424-29.764
				C176.756,294.056,176.756,286.746,172.057,286.746L172.057,286.746z"/>
			<path fill="#80D2B6" d="M115.662,431.911c22.976-23.498,33.941-55.612,29.764-88.509c-0.522-4.438-7.833-4.7-7.31,0
				c3.916,30.808-5.744,61.095-27.675,83.287C107.307,430.083,112.529,435.305,115.662,431.911L115.662,431.911z"/>
			<path fill="#80D2B6" d="M144.643,442.876c25.848-31.592,36.291-72.06,28.459-112.268c-0.783-4.438-7.833-2.611-7.049,1.828
				c7.049,37.336-2.611,75.715-26.631,105.218C136.549,441.31,141.51,446.532,144.643,442.876L144.643,442.876z"/>
			<path fill="#80D2B6" d="M230.018,387.526c3.916-42.557,5.744-106.785-49.607-114.356c-19.843-2.611-42.296,4.177-55.612,19.32
				c-16.971,19.582-14.36,46.735-11.227,70.233c0.522,4.438,7.833,4.7,7.31,0c-2.611-20.104-5.744-42.818,5.744-60.833
				c12.01-19.059,39.424-25.848,60.311-20.104c44.385,12.271,39.163,69.971,35.769,105.741
				C222.186,392.225,229.496,392.225,230.018,387.526L230.018,387.526z"/>
			<path fill="#80D2B6" d="M193.727,444.704c24.281-40.991,43.341-116.706,0-152.214c-3.655-2.872-8.616,2.089-4.961,4.961
				c40.469,33.419,21.409,105.479-1.044,143.598C185.372,444.965,191.377,448.62,193.727,444.704L193.727,444.704z"/>
			<path fill="#80D2B6" d="M203.648,358.023c1.044-20.365,0-46.996-22.715-55.351c-17.232-6.266-34.202,3.394-40.469,19.843
				c-1.567,4.438,5.222,6.266,7.049,1.828c6.005-15.665,25.848-21.931,38.902-10.182c12.01,10.966,11.227,28.72,10.444,43.863
				C196.077,362.722,203.387,362.722,203.648,358.023L203.648,358.023z"/>
			<path fill="#80D2B6" d="M156.914,448.359c24.281-29.764,41.513-77.543,30.808-116.445c-3.133-10.966-14.882-22.454-26.37-14.36
				c-6.266,4.439-7.833,12.271-7.572,19.582c0.522,14.36,2.35,27.153-0.261,41.513c-0.783,4.438,6.005,6.527,7.049,1.828
				c2.872-14.36,1.305-27.153,0.783-41.513c0-3.394-0.522-9.921,1.828-12.532c11.488-13.577,17.232,4.7,18.798,10.966
				c1.567,7.049,1.305,15.143,1.044,22.454c-1.305,30.547-12.01,59.789-31.331,83.287
				C148.82,446.793,154.042,452.014,156.914,448.359L156.914,448.359z"/>
		</g>
	</g>
	<path fill="#A5E2CB" d="M469.175,472.901v145.165c0,10.444-8.616,19.059-19.059,19.059H217.486
		c-10.444,0-19.059-8.616-19.059-19.059V472.901c0-10.444,8.616-19.059,19.059-19.059h232.629
		C460.559,453.842,469.175,462.458,469.175,472.901z"/>
	<g>
		<path fill="#13132A" d="M430.011,277.608c-0.261,8.355-0.522,16.449-0.783,24.803c-59.789,19.059-125.583,19.059-185.372,0.261
			c0-8.616,0.261-16.971,0.261-25.587C305.995,279.435,368.134,279.697,430.011,277.608z"/>
	</g>
	<g>
		<path fill="#E9CEBA" d="M430.534,264.553c0,0.783,0,1.828,0,2.611c0,3.655-0.261,7.049-0.261,10.705
			c-61.878,1.828-124.017,1.567-185.894-0.783c0-4.439,0-8.616,0.261-13.054h0.783l0,0
			C307.039,264.292,368.656,264.292,430.534,264.553z"/>
	</g>
	<g>
		<path fill="#13132A" d="M430.795,245.233h-0.261c-62.661-1.567-125.061-2.35-187.722-2.089c0-0.261,0-0.783,0-1.044
			c0.261-9.138,1.567-18.276,3.916-27.153c4.438-15.665,13.315-30.547,26.109-40.991c10.966-8.877,24.542-14.36,38.119-17.493
			c0.522-0.261,1.305-0.261,1.828-0.522c13.577-2.872,27.936-3.916,41.774-1.305c0.783,0.261,1.305,0.261,2.089,0.522
			c22.976,5.222,43.079,20.365,56.134,39.946C422.701,210.247,428.445,227.479,430.795,245.233z"/>
	</g>
	<g>
		<g>
			<path fill="#45846C" d="M432.361,245.755c0-0.261,0-0.261,0-0.522c-0.261-1.567-2.872-1.567-2.611,0c0,0.261,0,0.261,0,0.522
				C429.75,247.583,432.361,247.583,432.361,245.755L432.361,245.755z"/>
		</g>
	</g>
	<g>
		<g>
			<path fill="#45846C" d="M433.406,264.553C433.406,264.292,433.406,264.292,433.406,264.553c0-1.828-2.611-1.828-2.611-0.261
				c0,0,0,0,0,0.261C430.795,266.12,433.406,266.12,433.406,264.553L433.406,264.553z"/>
		</g>
	</g>
	<g>
		<path fill="#485889" d="M356.646,155.419c-0.783-0.261-1.305-0.261-2.089-0.522c-13.838-2.611-27.936-1.828-41.774,1.305
			c2.089-5.222,7.049-9.66,12.532-11.488c6.788-2.35,14.36-1.305,20.626,1.828C350.119,148.892,353.774,152.025,356.646,155.419z"/>
	</g>
	<g>
		<path fill="#485889" d="M433.928,258.287c-0.261,2.089-0.783,4.177-1.828,6.005v0.261h-1.567
			c-61.617,0-123.233-0.261-185.111-0.261l0,0h-1.044c0-0.261,0-0.522,0-1.044c-0.261-0.261-0.261-0.261-0.522-0.522l0,0
			c-1.828-1.828-3.394-3.916-4.177-6.266c-0.522-1.567-1.044-3.394-1.044-4.961c0-3.133,1.044-6.005,3.133-8.355h1.044
			c62.661,0,125.322,0.783,187.722,2.089c0.261,0.261,0.261,0.261,0.261,0.522l0,0c1.567,2.611,2.611,5.483,2.872,8.355
			C433.928,255.676,433.928,256.982,433.928,258.287z"/>
	</g>
	<g>
		<g>
			<path fill="#45846C" d="M241.767,241.317c-0.261,0.261-0.783,0.522-1.044,1.044c-1.044,1.305,0.783,3.133,1.828,1.828
				c0.261-0.261,0.783-0.783,1.044-1.044C244.9,241.839,243.073,240.011,241.767,241.317L241.767,241.317z"/>
		</g>
	</g>
	<g>
		<g>
			<path fill="#45846C" d="M346.986,425.645c1.567,0,1.567-2.611,0-2.611C345.419,423.034,345.419,425.645,346.986,425.645
				L346.986,425.645z"/>
		</g>
	</g>
	<g>
		<path fill="#485889" d="M445.416,453.842H220.097c7.31-11.488,19.843-20.104,32.897-24.542
			c17.754-5.744,36.552-4.961,55.351-3.655c1.044,2.089,2.35,4.177,3.916,6.005l0,0c3.655,3.916,8.355,7.049,13.577,8.355
			c8.616,2.35,18.276,0.261,26.109-3.655c6.005-3.133,11.227-7.31,15.926-12.271c14.099-1.044,28.198-1.044,41.513,2.872
			C424.268,430.866,438.366,440.527,445.416,453.842z"/>
	</g>
	<g>
		<path fill="#E9CEBA" d="M429.228,302.411c0,1.567,0,3.394-0.261,4.961c-0.522,18.015-1.305,36.552-8.877,52.74
			c-8.877,18.537-26.37,31.853-44.124,42.296c-6.005,3.394-12.271,6.788-18.798,9.399c0.261,4.438,0.522,8.877,1.305,13.054
			c3.133-0.261,6.266-0.522,9.66-0.783c-4.7,4.961-9.921,9.138-15.926,12.271c-8.094,4.177-17.493,6.005-26.109,3.655
			c-5.222-1.305-10.182-4.177-13.577-8.355l0,0c-1.567-1.828-2.872-3.916-3.916-6.005c1.305,0,2.611,0.261,4.177,0.261
			c0.261-4.438,0.522-8.877,0.522-13.577c-7.31-2.872-14.36-7.049-20.887-11.488c-17.232-11.227-34.725-24.281-42.557-43.341
			c-5.744-14.099-5.744-29.764-5.483-44.907c0-3.394,0-7.049,0-10.444C303.645,321.471,369.439,321.471,429.228,302.411z"/>
	</g>
	<g>
		<path fill="#485889" d="M198.427,496.922v115.14c-12.271-2.611-23.498-7.31-30.808-17.232
			c-8.616-11.488-9.138-27.675-4.961-41.252c4.438-13.838,12.793-25.587,21.67-37.074
			C189.289,509.976,194.249,503.449,198.427,496.922z"/>
	</g>
	<g>
		<path fill="#485889" d="M505.466,562.716c0.261,16.187-8.877,31.592-21.931,41.252c-4.439,3.394-9.138,6.005-14.36,8.094v-120.1
			c7.049,10.182,14.099,20.626,20.887,31.331C497.633,535.301,505.205,548.356,505.466,562.716z"/>
	</g>
	<path fill="#A5E2CB" d="M204.171,635.037h259.26c3.133,0,5.744,2.611,5.744,5.744l0,0c0,3.133-2.611,5.744-5.744,5.744h-259.26
		c-3.133,0-5.744-2.611-5.744-5.744l0,0C198.427,637.648,201.038,635.037,204.171,635.037z"/>
	<g>
		<path fill="#CCAB96" d="M133.416,254.893L133.416,254.893c-7.049-6.527-13.838-12.793-22.715-15.926
			c-7.833-2.611-16.187-2.35-24.281-2.872c-10.444-6.266-20.365-13.054-30.547-19.843c-10.705,16.971-21.67,33.68-32.375,50.651
			c9.66,5.222,19.32,10.705,28.981,15.926c0.783,1.567,1.567,3.133,2.089,4.7c2.611,6.527,4.438,13.577,7.31,19.843
			c3.133,6.788,7.833,12.793,10.705,19.582c2.611,6.527,3.655,13.577,4.7,20.626c0.522,2.611,1.044,5.483,3.394,6.788
			c1.828,1.305,4.438,0.783,6.527,0c6.005-2.611,9.66-9.66,8.616-15.926c-0.783-5.483-4.7-10.182-4.961-15.665
			c-0.261-3.916,1.305-7.31,2.611-10.966c2.872,1.567,5.222,4.177,7.572,6.266c13.315,13.838,26.631,27.675,41.252,40.208
			c2.872,2.35,6.527,4.961,9.921,3.394c2.611-1.305,3.655-4.439,3.133-7.31c0-0.783-0.261-1.566-0.522-2.35
			c-1.044-2.872-2.611-4.7-3.133-5.222c-7.049-7.572-9.921-10.182-9.921-10.182c-3.133-2.611-11.749-10.182-14.621-14.621
			c-1.305-2.089-2.089-4.438-2.089-4.7c-0.522-1.567-0.783-2.611-0.522-2.872c2.089-2.089,29.764,16.971,41.774,25.587
			c1.305,1.044,4.961,3.133,9.138,2.872c3.394-0.261,6.527-2.872,6.266-6.005c-0.261-2.872-2.872-4.7-5.222-6.266
			c-12.271-7.833-24.02-15.926-35.769-24.542c-1.044-0.783-1.828-1.567-2.611-2.611c-0.522-1.044-0.522-2.611,0.261-3.394
			c1.044-1.044,2.611-0.783,3.394-0.783l0,0c0,0,0.261,0,0.783,0c0.261,0,3.133,0.522,3.655,0.783
			c3.916,1.044,20.887,8.877,20.887,8.877s10.966,5.222,16.971,3.916c1.305-0.261,1.828-1.044,2.089-1.305
			c1.044-1.567,0.261-3.916-0.522-5.222c-1.044-1.567-2.872-2.35-4.438-3.394c-10.182-5.744-20.104-11.227-30.286-16.971
			c-1.567-0.783-3.133-1.828-3.916-3.133c-1.044-1.567-1.044-3.655,0.261-4.7l0.261-0.261c9.921,0.522,19.843,1.305,29.764,1.828
			c3.133,0.261,7.049,0,8.094-2.872c0.522-1.828-0.261-3.916-1.567-4.961c-1.305-1.305-3.133-1.828-4.961-2.35
			c-10.443-3.133-21.409-3.394-31.331-7.572C142.293,260.376,137.854,257.504,133.416,254.893z"/>
	</g>
</g>
<g id="Frau">
</g>
<g id="Mann">
</g>
</svg>
